<?xml version="1.0" encoding="UTF-8"?>
<svg id="Layer_1" data-name="Layer 1" xmlns="http://www.w3.org/2000/svg" viewBox="0 0 762.13 224.74">
  <defs>
    <style>
      .cls-1 {
        fill: #171717;
      }

      .cls-2 {
        fill: #6f2fff;
      }
    </style>
  </defs>
  <g>
    <path class="cls-1" d="M298.35,103.88v-17.93h59.7v17.93h-59.7ZM346.36,170.42c-8.41,0-15.19-1.06-20.36-3.19s-8.96-5.64-11.39-10.56c-2.43-4.91-3.65-11.57-3.65-19.98l.15-73.22h22.63v74.13c0,3.95,1.04,6.96,3.11,9.04,2.07,2.08,5.04,3.11,8.89,3.11h12.3v20.66h-11.7Z"/>
    <path class="cls-1" d="M414.72,172.24c-7.29,0-13.77-1.14-19.44-3.42-5.67-2.28-10.48-5.42-14.43-9.42-3.95-4-6.94-8.56-8.96-13.67-2.03-5.11-3.04-10.51-3.04-16.18v-3.49c0-5.77,1.06-11.27,3.19-16.48,2.13-5.22,5.19-9.8,9.19-13.75,4-3.95,8.83-7.06,14.51-9.34,5.67-2.28,12-3.42,18.99-3.42s13.6,1.14,19.22,3.42c5.62,2.28,10.41,5.39,14.36,9.34,3.95,3.95,6.99,8.53,9.11,13.75,2.13,5.22,3.19,10.71,3.19,16.48v3.49c0,5.67-1.01,11.07-3.04,16.18-2.03,5.11-4.99,9.67-8.89,13.67-3.9,4-8.69,7.14-14.36,9.42-5.67,2.28-12.21,3.42-19.6,3.42ZM414.72,151.58c4.76,0,8.71-1.01,11.85-3.04,3.14-2.02,5.52-4.86,7.14-8.51,1.62-3.65,2.43-7.69,2.43-12.15,0-4.76-.84-8.94-2.51-12.53-1.67-3.59-4.1-6.43-7.29-8.51-3.19-2.07-7.06-3.11-11.62-3.11s-8.31,1.04-11.55,3.11c-3.24,2.08-5.7,4.91-7.37,8.51-1.67,3.6-2.51,7.77-2.51,12.53,0,4.46.81,8.51,2.43,12.15,1.62,3.65,4.05,6.48,7.29,8.51,3.24,2.03,7.14,3.04,11.7,3.04Z"/>
    <path class="cls-1" d="M477.46,199.59v-113.63h19.44v36l-2.58-.15c.4-8.3,2.13-15.32,5.16-21.04,3.04-5.72,7.14-10.03,12.3-12.91,5.16-2.89,10.99-4.33,17.47-4.33,5.77,0,11.01,1.06,15.72,3.19,4.71,2.13,8.76,5.09,12.15,8.89,3.39,3.8,5.97,8.26,7.75,13.37,1.77,5.11,2.66,10.71,2.66,16.79v3.49c0,5.98-.86,11.57-2.58,16.79-1.72,5.22-4.23,9.77-7.52,13.67-3.29,3.9-7.29,6.91-12,9.04-4.71,2.13-10.1,3.19-16.18,3.19s-11.93-1.29-16.94-3.87c-5.01-2.58-9.04-6.53-12.08-11.85-3.04-5.32-4.71-12.08-5.01-20.28l6.68,9.11v54.54h-24.46ZM522.42,151.58c4.15,0,7.77-1.01,10.86-3.04,3.09-2.02,5.49-4.86,7.22-8.51,1.72-3.65,2.58-7.85,2.58-12.61s-.86-8.89-2.58-12.38c-1.72-3.49-4.13-6.23-7.22-8.2-3.09-1.98-6.71-2.96-10.86-2.96-3.65,0-7.09.84-10.33,2.51-3.24,1.67-5.85,4.13-7.82,7.37-1.98,3.24-2.96,7.09-2.96,11.54v5.62c0,4.36,1.04,8.08,3.11,11.17,2.07,3.09,4.73,5.44,7.98,7.06,3.24,1.62,6.58,2.43,10.03,2.43Z"/>
    <path class="cls-1" d="M584.25,169.2V58.31h24.46v63.95h-3.65c0-8.4,1.06-15.49,3.19-21.27,2.13-5.77,5.27-10.15,9.42-13.14,4.15-2.99,9.37-4.48,15.65-4.48h1.06c9.21,0,16.25,3.27,21.12,9.8,4.86,6.53,7.29,16.08,7.29,28.64v47.4h-24.46v-48.91c0-4.56-1.32-8.2-3.95-10.94-2.63-2.73-6.13-4.1-10.48-4.1s-8.23,1.47-11.01,4.41c-2.79,2.94-4.18,6.79-4.18,11.55v48h-24.46Z"/>
    <path class="cls-1" d="M721.57,172.24c-7.09,0-13.34-1.22-18.76-3.65-5.42-2.43-9.95-5.72-13.6-9.87-3.65-4.15-6.41-8.78-8.28-13.9-1.87-5.11-2.81-10.35-2.81-15.72v-3.04c0-5.57.94-10.91,2.81-16.03,1.87-5.11,4.61-9.7,8.2-13.75,3.59-4.05,8.05-7.27,13.37-9.65,5.32-2.38,11.37-3.57,18.15-3.57,8.91,0,16.43,2,22.56,6,6.13,4,10.81,9.22,14.05,15.65,3.24,6.43,4.86,13.44,4.86,21.04v8.2h-73.68v-13.82h58.94l-8.05,6.53c0-5.06-.68-9.34-2.05-12.84-1.37-3.49-3.44-6.18-6.23-8.05-2.79-1.87-6.25-2.81-10.41-2.81s-7.85.94-10.79,2.81c-2.94,1.88-5.16,4.66-6.68,8.36-1.52,3.7-2.28,8.23-2.28,13.6,0,4.96.71,9.29,2.13,12.99,1.42,3.7,3.65,6.56,6.68,8.58,3.04,2.03,6.99,3.04,11.85,3.04,4.45,0,8.1-.86,10.94-2.58,2.83-1.72,4.76-3.85,5.77-6.38h22.33c-1.22,5.57-3.6,10.53-7.14,14.89-3.55,4.36-8,7.77-13.37,10.25-5.37,2.48-11.55,3.72-18.53,3.72Z"/>
  </g>
  <g>
    <path class="cls-2" d="M114.09,124.4c-4.22-.32-7.25-5.63-6.77-11.84.24-3.17,1.36-5.96,2.95-7.9-1.33-.62-2.73-1.03-4.21-1.15-9.53-.73-18.13,10.07-19.21,24.12-1.08,14.05,5.77,26.03,15.3,26.77,9.53.73,18.13-10.07,19.21-24.12.28-3.59.03-7.04-.64-10.21-1.6,2.8-4.03,4.53-6.62,4.33Z"/>
    <path class="cls-2" d="M160.81,103.51c-1.48.11-2.88.53-4.21,1.15,1.59,1.94,2.7,4.73,2.95,7.9.48,6.22-2.55,11.52-6.77,11.84-2.59.2-5.02-1.53-6.62-4.33-.67,3.17-.92,6.62-.64,10.21,1.08,14.05,9.68,24.85,19.21,24.12,9.53-.73,16.38-12.72,15.3-26.77-1.08-14.05-9.68-24.85-19.21-24.12Z"/>
    <path class="cls-2" d="M203.3,69.7c5.5,11.35,8.62,24.18,8.62,37.79,0,45.82-35.21,83.09-78.49,83.09s-78.49-37.27-78.49-83.09c0-13.6,3.12-26.44,8.62-37.79H26.81c-3.88,11.86-6.01,24.56-6.01,37.79,0,64.75,50.43,117.24,112.64,117.24s112.64-52.49,112.64-117.24c0-13.23-2.14-25.93-6.01-37.79h-36.76Z"/>
    <path class="cls-2" d="M266.06,44.4l-11.49-39.35c-.84-2.87-3.34-4.75-6.1-4.99l.26-.06H19.1l.02.03c-3.03-.06-5.92,1.91-6.83,5.03L.8,44.4c-3.69,12.65,5.79,25.3,18.97,25.3h7.03c4.67-14.29,11.93-27.33,21.18-38.54.81-.94,2.76-3.19,5.26-5.85,5.33-5.68,14.52-5.15,19.06,1.18,2.82,3.92,6.46,8.29,10.91,12.28l.03-.02c13.47,12.36,31,19.87,50.19,19.87,20.68,0,39.45-8.68,53.27-22.78,1.06-1.08,2.07-2.16,3.02-3.25.45-.52.88-1.06,1.32-1.59.54-.65,1.08-1.3,1.58-1.94.52-.67,1.03-1.34,1.53-2.03.13-.18.28-.37.41-.54,4.55-6.32,13.73-6.86,19.06-1.18,3.23,3.44,5.54,6.18,5.64,6.3,9.07,11.11,16.19,23.99,20.8,38.09h7.03c13.18,0,22.66-12.65,18.97-25.3Z"/>
  </g>
</svg>